<svg xmlns="http://www.w3.org/2000/svg" xmlns:xlink="http://www.w3.org/1999/xlink" width="1366" zoomAndPan="magnify" viewBox="0 0 1024.5 657.75" height="877" preserveAspectRatio="xMidYMid meet" version="1.0"><defs><g/><clipPath id="4d65c32c26"><path d="M 0 0.0351562 L 1024 0.0351562 L 1024 657.464844 L 0 657.464844 Z M 0 0.0351562 " clip-rule="nonzero"/></clipPath><clipPath id="a567691d01"><path d="M 0 0.0351562 L 1023.992188 0.0351562 L 1023.992188 657.464844 L 0 657.464844 Z M 0 0.0351562 " clip-rule="nonzero"/></clipPath><radialGradient gradientTransform="matrix(1, 0, 0, 1, -0.00850333, 0.0355078)" gradientUnits="userSpaceOnUse" r="608.437809" cx="512.001175" id="381bd6729e" cy="328.714559" fx="512.001175" fy="328.714559"><stop stop-opacity="1" stop-color="rgb(99.827576%, 99.919128%, 100%)" offset="0"/><stop stop-opacity="1" stop-color="rgb(99.505615%, 99.769592%, 100%)" offset="0.03125"/><stop stop-opacity="1" stop-color="rgb(99.205017%, 99.630737%, 100%)" offset="0.0585938"/><stop stop-opacity="1" stop-color="rgb(98.904419%, 99.490356%, 100%)" offset="0.0859375"/><stop stop-opacity="1" stop-color="rgb(98.605347%, 99.351501%, 100%)" offset="0.113281"/><stop stop-opacity="1" stop-color="rgb(98.326111%, 99.221802%, 100%)" offset="0.140625"/><stop stop-opacity="1" stop-color="rgb(98.068237%, 99.102783%, 100%)" offset="0.164062"/><stop stop-opacity="1" stop-color="rgb(97.81189%, 98.982239%, 100%)" offset="0.1875"/><stop stop-opacity="1" stop-color="rgb(97.554016%, 98.86322%, 100%)" offset="0.210938"/><stop stop-opacity="1" stop-color="rgb(97.296143%, 98.744202%, 100%)" offset="0.234375"/><stop stop-opacity="1" stop-color="rgb(97.061157%, 98.634338%, 100%)" offset="0.257812"/><stop stop-opacity="1" stop-color="rgb(96.846008%, 98.535156%, 100%)" offset="0.277344"/><stop stop-opacity="1" stop-color="rgb(96.632385%, 98.434448%, 100%)" offset="0.296875"/><stop stop-opacity="1" stop-color="rgb(96.417236%, 98.335266%, 100%)" offset="0.316406"/><stop stop-opacity="1" stop-color="rgb(96.203613%, 98.236084%, 100%)" offset="0.335938"/><stop stop-opacity="1" stop-color="rgb(95.988464%, 98.135376%, 100%)" offset="0.355469"/><stop stop-opacity="1" stop-color="rgb(95.774841%, 98.036194%, 100%)" offset="0.375"/><stop stop-opacity="1" stop-color="rgb(95.474243%, 97.897339%, 100%)" offset="0.394531"/><stop stop-opacity="1" stop-color="rgb(95.088196%, 97.717285%, 100%)" offset="0.429688"/><stop stop-opacity="1" stop-color="rgb(94.723511%, 97.547913%, 100%)" offset="0.464844"/><stop stop-opacity="1" stop-color="rgb(94.380188%, 97.389221%, 100%)" offset="0.496094"/><stop stop-opacity="1" stop-color="rgb(94.058228%, 97.239685%, 100%)" offset="0.527344"/><stop stop-opacity="1" stop-color="rgb(93.757629%, 97.10083%, 100%)" offset="0.554688"/><stop stop-opacity="1" stop-color="rgb(93.479919%, 96.97113%, 100%)" offset="0.582031"/><stop stop-opacity="1" stop-color="rgb(93.222046%, 96.850586%, 100%)" offset="0.605469"/><stop stop-opacity="1" stop-color="rgb(92.985535%, 96.740723%, 100%)" offset="0.628906"/><stop stop-opacity="1" stop-color="rgb(92.771912%, 96.641541%, 100%)" offset="0.648438"/><stop stop-opacity="1" stop-color="rgb(92.556763%, 96.542358%, 100%)" offset="0.667969"/><stop stop-opacity="1" stop-color="rgb(92.34314%, 96.443176%, 100%)" offset="0.6875"/><stop stop-opacity="1" stop-color="rgb(92.042542%, 96.302795%, 100%)" offset="0.707031"/><stop stop-opacity="1" stop-color="rgb(91.677856%, 96.133423%, 100%)" offset="0.742188"/><stop stop-opacity="1" stop-color="rgb(91.355896%, 95.983887%, 100%)" offset="0.773438"/><stop stop-opacity="1" stop-color="rgb(91.078186%, 95.855713%, 100%)" offset="0.800781"/><stop stop-opacity="1" stop-color="rgb(90.841675%, 95.74585%, 100%)" offset="0.824219"/><stop stop-opacity="1" stop-color="rgb(90.626526%, 95.645142%, 100%)" offset="0.84375"/><stop stop-opacity="1" stop-color="rgb(90.348816%, 95.516968%, 100%)" offset="0.863281"/><stop stop-opacity="1" stop-color="rgb(90.048218%, 95.376587%, 100%)" offset="0.894531"/><stop stop-opacity="1" stop-color="rgb(89.811707%, 95.266724%, 100%)" offset="0.917969"/><stop stop-opacity="1" stop-color="rgb(89.533997%, 95.13855%, 100%)" offset="0.9375"/><stop stop-opacity="1" stop-color="rgb(89.190674%, 94.978333%, 100%)" offset="0.96875"/><stop stop-opacity="1" stop-color="rgb(89.019775%, 94.898987%, 100%)" offset="1"/></radialGradient><clipPath id="26c02e88c4"><rect x="0" width="1024" y="0" height="658"/></clipPath></defs><g clip-path="url(#4d65c32c26)"><path fill="#ffffff" d="M 0 0.0351562 L 1024 0.0351562 L 1024 657.464844 L 0 657.464844 Z M 0 0.0351562 " fill-opacity="1" fill-rule="nonzero"/><path fill="#ffffff" d="M 0 0.0351562 L 1024 0.0351562 L 1024 657.464844 L 0 657.464844 Z M 0 0.0351562 " fill-opacity="1" fill-rule="nonzero"/><g transform="matrix(1, 0, 0, 1, 0, -0.000000000000167859)"><g clip-path="url(#26c02e88c4)"><g clip-path="url(#a567691d01)"><path fill="url(#381bd6729e)" d="M 0 0.0351562 L 0 657.464844 L 1023.992188 657.464844 L 1023.992188 0.0351562 Z M 0 0.0351562 " fill-rule="nonzero"/></g></g></g></g><path stroke-linecap="butt" transform="matrix(0.749634, -0.000000000000000372, 0.000000000000000372, 0.749634, 596.594667, 311.225994)" fill="none" stroke-linejoin="miter" d="M -0.00122368 2.001734 L 94.763757 2.001734 " stroke="#17447e" stroke-width="4" stroke-opacity="1" stroke-miterlimit="4"/><path stroke-linecap="round" transform="matrix(0.749634, -0.000000000000000372, 0.000000000000000372, 0.749634, 596.594667, 311.225994)" fill-opacity="1" fill="#17447e" fill-rule="nonzero" stroke-linejoin="round" d="M 95.764245 -4.001194 L 103.762939 2.001734 L 95.764245 7.999452 Z M 95.764245 -4.001194 " stroke="#17447e" stroke-width="4" stroke-opacity="1" stroke-miterlimit="4"/><g fill="#00427e" fill-opacity="1"><g transform="translate(325.05412, 324.719408)"><g><path d="M 0.671875 0 L 9.546875 -26.046875 L 17.796875 -26.046875 L 26.71875 0 L 20.53125 0 L 13.96875 -21.546875 L 13.421875 -21.546875 L 6.828125 0 Z M 5.640625 -5.09375 L 5.640625 -9 L 22.53125 -9 L 22.53125 -5.09375 Z M 5.640625 -5.09375 "/></g></g></g><g fill="#00427e" fill-opacity="1"><g transform="translate(351.413935, 324.719408)"><g><path d="M 15 0.546875 C 13.707031 0.546875 12.570312 0.289062 11.59375 -0.21875 C 10.625 -0.726562 9.835938 -1.476562 9.234375 -2.46875 C 8.628906 -3.457031 8.207031 -4.644531 7.96875 -6.03125 L 7.265625 -6.03125 L 7.265625 0 L 2.53125 0 L 2.53125 -28.140625 L 8.203125 -28.140625 L 8.203125 -21.4375 C 8.203125 -20.800781 8.160156 -20.117188 8.078125 -19.390625 C 8.003906 -18.671875 7.894531 -17.914062 7.75 -17.125 C 7.601562 -16.34375 7.453125 -15.539062 7.296875 -14.71875 L 8.125 -14.71875 C 8.46875 -16.0625 8.9375 -17.21875 9.53125 -18.1875 C 10.125 -19.164062 10.878906 -19.914062 11.796875 -20.4375 C 12.722656 -20.96875 13.816406 -21.234375 15.078125 -21.234375 C 16.785156 -21.234375 18.269531 -20.785156 19.53125 -19.890625 C 20.800781 -18.992188 21.773438 -17.726562 22.453125 -16.09375 C 23.140625 -14.46875 23.484375 -12.523438 23.484375 -10.265625 C 23.484375 -8.054688 23.140625 -6.140625 22.453125 -4.515625 C 21.773438 -2.898438 20.800781 -1.648438 19.53125 -0.765625 C 18.269531 0.109375 16.757812 0.546875 15 0.546875 Z M 13.03125 -4.109375 C 13.945312 -4.109375 14.742188 -4.363281 15.421875 -4.875 C 16.109375 -5.382812 16.632812 -6.113281 17 -7.0625 C 17.375 -8.007812 17.5625 -9.101562 17.5625 -10.34375 C 17.5625 -11.601562 17.382812 -12.695312 17.03125 -13.625 C 16.675781 -14.5625 16.171875 -15.289062 15.515625 -15.8125 C 14.859375 -16.34375 14.066406 -16.609375 13.140625 -16.609375 C 12.515625 -16.609375 11.9375 -16.488281 11.40625 -16.25 C 10.875 -16.019531 10.410156 -15.703125 10.015625 -15.296875 C 9.628906 -14.890625 9.296875 -14.4375 9.015625 -13.9375 C 8.742188 -13.4375 8.539062 -12.898438 8.40625 -12.328125 C 8.269531 -11.765625 8.203125 -11.222656 8.203125 -10.703125 L 8.203125 -9.984375 C 8.203125 -9.347656 8.296875 -8.679688 8.484375 -7.984375 C 8.671875 -7.296875 8.96875 -6.660156 9.375 -6.078125 C 9.78125 -5.492188 10.285156 -5.019531 10.890625 -4.65625 C 11.492188 -4.289062 12.207031 -4.109375 13.03125 -4.109375 Z M 13.03125 -4.109375 "/></g></g></g><g fill="#00427e" fill-opacity="1"><g transform="translate(375.406092, 324.719408)"><g><path d="M 11.953125 0.546875 C 9.878906 0.546875 8.050781 0.132812 6.46875 -0.6875 C 4.894531 -1.519531 3.660156 -2.742188 2.765625 -4.359375 C 1.867188 -5.972656 1.421875 -7.992188 1.421875 -10.421875 C 1.421875 -12.835938 1.875 -14.847656 2.78125 -16.453125 C 3.6875 -18.054688 4.925781 -19.257812 6.5 -20.0625 C 8.082031 -20.875 9.890625 -21.28125 11.921875 -21.28125 C 13.992188 -21.28125 15.820312 -20.867188 17.40625 -20.046875 C 18.988281 -19.234375 20.234375 -18.015625 21.140625 -16.390625 C 22.046875 -14.773438 22.5 -12.757812 22.5 -10.34375 C 22.5 -7.863281 22.035156 -5.820312 21.109375 -4.21875 C 20.191406 -2.613281 18.929688 -1.414062 17.328125 -0.625 C 15.722656 0.15625 13.929688 0.546875 11.953125 0.546875 Z M 12.109375 -3.671875 C 12.742188 -3.671875 13.335938 -3.773438 13.890625 -3.984375 C 14.441406 -4.191406 14.9375 -4.539062 15.375 -5.03125 C 15.8125 -5.519531 16.15625 -6.175781 16.40625 -7 C 16.65625 -7.832031 16.78125 -8.84375 16.78125 -10.03125 C 16.78125 -11.289062 16.640625 -12.351562 16.359375 -13.21875 C 16.085938 -14.09375 15.71875 -14.796875 15.25 -15.328125 C 14.789062 -15.867188 14.257812 -16.257812 13.65625 -16.5 C 13.050781 -16.738281 12.421875 -16.859375 11.765625 -16.859375 C 11.160156 -16.859375 10.570312 -16.75 10 -16.53125 C 9.4375 -16.320312 8.941406 -15.972656 8.515625 -15.484375 C 8.097656 -15.003906 7.757812 -14.351562 7.5 -13.53125 C 7.238281 -12.71875 7.109375 -11.707031 7.109375 -10.5 C 7.109375 -9.238281 7.238281 -8.171875 7.5 -7.296875 C 7.757812 -6.429688 8.125 -5.726562 8.59375 -5.1875 C 9.070312 -4.644531 9.613281 -4.253906 10.21875 -4.015625 C 10.820312 -3.785156 11.453125 -3.671875 12.109375 -3.671875 Z M 12.109375 -3.671875 "/></g></g></g><g fill="#00427e" fill-opacity="1"><g transform="translate(398.372261, 324.719408)"><g><path d="M 9.46875 0.546875 C 8.445312 0.546875 7.539062 0.398438 6.75 0.109375 C 5.957031 -0.171875 5.28125 -0.59375 4.71875 -1.15625 C 4.15625 -1.726562 3.6875 -2.414062 3.3125 -3.21875 C 2.945312 -4.019531 2.671875 -4.9375 2.484375 -5.96875 C 2.296875 -7.007812 2.203125 -8.164062 2.203125 -9.4375 L 2.203125 -20.71875 L 7.9375 -20.71875 L 7.9375 -10.703125 C 7.9375 -10.117188 7.953125 -9.457031 7.984375 -8.71875 C 8.023438 -7.988281 8.15625 -7.273438 8.375 -6.578125 C 8.601562 -5.878906 8.96875 -5.304688 9.46875 -4.859375 C 9.96875 -4.410156 10.664062 -4.1875 11.5625 -4.1875 C 12.300781 -4.1875 12.9375 -4.363281 13.46875 -4.71875 C 14.007812 -5.070312 14.476562 -5.582031 14.875 -6.25 C 15.269531 -6.925781 15.566406 -7.71875 15.765625 -8.625 C 15.960938 -9.53125 16.078125 -10.523438 16.109375 -11.609375 L 16.109375 -20.71875 L 21.78125 -20.71875 L 21.78125 0 L 17.171875 0 L 17.171875 -6.625 L 16.453125 -6.625 C 16.117188 -4.945312 15.644531 -3.582031 15.03125 -2.53125 C 14.425781 -1.476562 13.671875 -0.703125 12.765625 -0.203125 C 11.859375 0.296875 10.757812 0.546875 9.46875 0.546875 Z M 9.46875 0.546875 "/></g></g></g><g fill="#00427e" fill-opacity="1"><g transform="translate(421.733037, 324.719408)"><g><path d="M 10.265625 0.46875 C 9.128906 0.46875 8.140625 0.320312 7.296875 0.03125 C 6.453125 -0.25 5.75 -0.695312 5.1875 -1.3125 C 4.625 -1.9375 4.195312 -2.734375 3.90625 -3.703125 C 3.613281 -4.679688 3.46875 -5.84375 3.46875 -7.1875 L 3.46875 -16.265625 L 0.515625 -16.265625 L 0.625 -20.640625 L 2.53125 -20.640625 C 3.394531 -20.671875 4.035156 -20.820312 4.453125 -21.09375 C 4.878906 -21.375 5.128906 -21.867188 5.203125 -22.578125 L 5.6875 -25.34375 L 8.921875 -25.34375 L 8.921875 -20.71875 L 14.125 -20.71875 L 14.125 -16.109375 L 8.921875 -16.109375 L 8.921875 -7.453125 C 8.921875 -6.378906 9.179688 -5.65625 9.703125 -5.28125 C 10.234375 -4.914062 10.878906 -4.734375 11.640625 -4.734375 C 12.117188 -4.734375 12.59375 -4.789062 13.0625 -4.90625 C 13.539062 -5.03125 13.945312 -5.195312 14.28125 -5.40625 L 14.28125 -0.125 C 13.46875 0.113281 12.71875 0.269531 12.03125 0.34375 C 11.351562 0.425781 10.765625 0.46875 10.265625 0.46875 Z M 10.265625 0.46875 "/></g></g></g><g fill="#00427e" fill-opacity="1"><g transform="translate(436.333424, 324.719408)"><g/></g></g><g fill="#00427e" fill-opacity="1"><g transform="translate(444.38324, 324.719408)"><g><path d="M 14.25 0.546875 C 12.664062 0.546875 11.25 0.378906 10 0.046875 C 8.75 -0.273438 7.664062 -0.742188 6.75 -1.359375 C 5.832031 -1.984375 5.066406 -2.734375 4.453125 -3.609375 C 3.847656 -4.492188 3.394531 -5.488281 3.09375 -6.59375 C 2.789062 -7.695312 2.640625 -8.90625 2.640625 -10.21875 L 2.640625 -26.046875 L 8.328125 -26.046875 L 8.328125 -10.421875 C 8.328125 -9.054688 8.550781 -7.929688 9 -7.046875 C 9.445312 -6.160156 10.101562 -5.515625 10.96875 -5.109375 C 11.84375 -4.703125 12.921875 -4.5 14.203125 -4.5 C 15.523438 -4.5 16.617188 -4.707031 17.484375 -5.125 C 18.347656 -5.550781 19 -6.195312 19.4375 -7.0625 C 19.875 -7.9375 20.09375 -9.054688 20.09375 -10.421875 L 20.09375 -26.046875 L 25.765625 -26.046875 L 25.765625 -10.21875 C 25.765625 -8.488281 25.519531 -6.957031 25.03125 -5.625 C 24.550781 -4.289062 23.832031 -3.164062 22.875 -2.25 C 21.914062 -1.332031 20.710938 -0.632812 19.265625 -0.15625 C 17.816406 0.3125 16.144531 0.546875 14.25 0.546875 Z M 14.25 0.546875 "/></g></g></g><g fill="#00427e" fill-opacity="1"><g transform="translate(471.769055, 324.719408)"><g><path d="M 10.859375 0.546875 C 9.460938 0.546875 8.195312 0.414062 7.0625 0.15625 C 5.9375 -0.101562 4.960938 -0.488281 4.140625 -1 C 3.328125 -1.519531 2.671875 -2.140625 2.171875 -2.859375 C 1.671875 -3.585938 1.351562 -4.394531 1.21875 -5.28125 L 5.609375 -6.953125 C 5.710938 -6.367188 5.992188 -5.816406 6.453125 -5.296875 C 6.910156 -4.785156 7.535156 -4.378906 8.328125 -4.078125 C 9.117188 -3.773438 10.078125 -3.625 11.203125 -3.625 C 12.390625 -3.625 13.3125 -3.800781 13.96875 -4.15625 C 14.625 -4.519531 14.953125 -5.03125 14.953125 -5.6875 C 14.953125 -6.1875 14.769531 -6.578125 14.40625 -6.859375 C 14.039062 -7.148438 13.507812 -7.398438 12.8125 -7.609375 C 12.113281 -7.828125 11.265625 -8.023438 10.265625 -8.203125 C 9.265625 -8.441406 8.253906 -8.695312 7.234375 -8.96875 C 6.222656 -9.25 5.289062 -9.625 4.4375 -10.09375 C 3.582031 -10.570312 2.890625 -11.191406 2.359375 -11.953125 C 1.835938 -12.722656 1.578125 -13.695312 1.578125 -14.875 C 1.578125 -16.164062 1.914062 -17.285156 2.59375 -18.234375 C 3.28125 -19.179688 4.289062 -19.925781 5.625 -20.46875 C 6.957031 -21.007812 8.554688 -21.28125 10.421875 -21.28125 C 12.128906 -21.28125 13.628906 -21.046875 14.921875 -20.578125 C 16.210938 -20.117188 17.265625 -19.445312 18.078125 -18.5625 C 18.890625 -17.6875 19.425781 -16.628906 19.6875 -15.390625 L 15.078125 -13.9375 C 14.972656 -14.59375 14.722656 -15.160156 14.328125 -15.640625 C 13.929688 -16.128906 13.394531 -16.492188 12.71875 -16.734375 C 12.050781 -16.972656 11.269531 -17.09375 10.375 -17.09375 C 9.269531 -17.09375 8.410156 -16.90625 7.796875 -16.53125 C 7.179688 -16.164062 6.875 -15.679688 6.875 -15.078125 C 6.875 -14.578125 7.078125 -14.164062 7.484375 -13.84375 C 7.890625 -13.53125 8.453125 -13.273438 9.171875 -13.078125 C 9.898438 -12.878906 10.765625 -12.675781 11.765625 -12.46875 C 12.816406 -12.257812 13.832031 -12.015625 14.8125 -11.734375 C 15.800781 -11.460938 16.703125 -11.101562 17.515625 -10.65625 C 18.335938 -10.207031 18.988281 -9.613281 19.46875 -8.875 C 19.957031 -8.144531 20.203125 -7.1875 20.203125 -6 C 20.203125 -4.632812 19.832031 -3.460938 19.09375 -2.484375 C 18.363281 -1.515625 17.300781 -0.765625 15.90625 -0.234375 C 14.507812 0.285156 12.828125 0.546875 10.859375 0.546875 Z M 10.859375 0.546875 "/></g></g></g><g fill="#00427e" fill-opacity="1"><g transform="translate(492.170242, 324.719408)"><g/></g></g><g fill="#00427e" fill-opacity="1"><g transform="translate(500.220058, 324.719408)"><g><path d="M 6.78125 -7.375 L 6.78125 -11.84375 L 12.15625 -11.84375 C 12.601562 -11.84375 13.109375 -11.851562 13.671875 -11.875 C 14.242188 -11.90625 14.796875 -12 15.328125 -12.15625 C 15.867188 -12.3125 16.367188 -12.566406 16.828125 -12.921875 C 17.296875 -13.273438 17.660156 -13.757812 17.921875 -14.375 C 18.179688 -15 18.3125 -15.8125 18.3125 -16.8125 C 18.3125 -17.757812 18.171875 -18.535156 17.890625 -19.140625 C 17.617188 -19.742188 17.257812 -20.21875 16.8125 -20.5625 C 16.363281 -20.90625 15.890625 -21.15625 15.390625 -21.3125 C 14.890625 -21.46875 14.414062 -21.554688 13.96875 -21.578125 C 13.519531 -21.609375 13.148438 -21.625 12.859375 -21.625 L 6.78125 -21.625 L 6.78125 -26.046875 L 13.1875 -26.046875 C 14.8125 -26.046875 16.285156 -25.851562 17.609375 -25.46875 C 18.941406 -25.09375 20.085938 -24.519531 21.046875 -23.75 C 22.015625 -22.988281 22.757812 -22.015625 23.28125 -20.828125 C 23.8125 -19.648438 24.078125 -18.269531 24.078125 -16.6875 C 24.078125 -14.664062 23.613281 -12.960938 22.6875 -11.578125 C 21.769531 -10.203125 20.410156 -9.15625 18.609375 -8.4375 C 16.804688 -7.726562 14.550781 -7.375 11.84375 -7.375 Z M 2.796875 0 L 2.796875 -26.046875 L 8.484375 -26.046875 L 8.484375 0 Z M 2.796875 0 "/></g></g></g><g fill="#00427e" fill-opacity="1"><g transform="translate(524.133222, 324.719408)"><g><path d="M 7.421875 0.546875 C 6.265625 0.546875 5.238281 0.320312 4.34375 -0.125 C 3.445312 -0.570312 2.738281 -1.222656 2.21875 -2.078125 C 1.707031 -2.929688 1.453125 -3.972656 1.453125 -5.203125 C 1.453125 -6.648438 1.773438 -7.796875 2.421875 -8.640625 C 3.066406 -9.484375 3.894531 -10.128906 4.90625 -10.578125 C 5.925781 -11.023438 7 -11.347656 8.125 -11.546875 C 9.257812 -11.742188 10.3125 -11.90625 11.28125 -12.03125 C 12.175781 -12.164062 12.898438 -12.304688 13.453125 -12.453125 C 14.003906 -12.597656 14.40625 -12.804688 14.65625 -13.078125 C 14.90625 -13.359375 15.03125 -13.734375 15.03125 -14.203125 C 15.03125 -14.734375 14.910156 -15.195312 14.671875 -15.59375 C 14.441406 -15.988281 14.085938 -16.3125 13.609375 -16.5625 C 13.140625 -16.8125 12.523438 -16.9375 11.765625 -16.9375 C 11.023438 -16.9375 10.328125 -16.800781 9.671875 -16.53125 C 9.015625 -16.269531 8.453125 -15.867188 7.984375 -15.328125 C 7.523438 -14.796875 7.21875 -14.117188 7.0625 -13.296875 L 2.015625 -14.71875 C 2.304688 -15.851562 2.742188 -16.828125 3.328125 -17.640625 C 3.921875 -18.453125 4.640625 -19.128906 5.484375 -19.671875 C 6.328125 -20.210938 7.273438 -20.613281 8.328125 -20.875 C 9.378906 -21.144531 10.523438 -21.28125 11.765625 -21.28125 C 13.367188 -21.28125 14.734375 -21.082031 15.859375 -20.6875 C 16.992188 -20.289062 17.910156 -19.691406 18.609375 -18.890625 C 19.304688 -18.085938 19.816406 -17.113281 20.140625 -15.96875 C 20.472656 -14.820312 20.640625 -13.507812 20.640625 -12.03125 L 20.640625 -8.484375 C 20.640625 -7.585938 20.648438 -6.660156 20.671875 -5.703125 C 20.703125 -4.742188 20.75 -3.789062 20.8125 -2.84375 C 20.882812 -1.894531 20.957031 -0.945312 21.03125 0 L 16.03125 0 C 15.945312 -0.707031 15.859375 -1.488281 15.765625 -2.34375 C 15.671875 -3.195312 15.613281 -4.070312 15.59375 -4.96875 L 14.921875 -4.96875 C 14.546875 -3.96875 14.015625 -3.039062 13.328125 -2.1875 C 12.648438 -1.332031 11.8125 -0.660156 10.8125 -0.171875 C 9.8125 0.304688 8.679688 0.546875 7.421875 0.546875 Z M 9.828125 -3.59375 C 10.328125 -3.59375 10.832031 -3.675781 11.34375 -3.84375 C 11.851562 -4.019531 12.351562 -4.273438 12.84375 -4.609375 C 13.332031 -4.953125 13.78125 -5.382812 14.1875 -5.90625 C 14.59375 -6.4375 14.914062 -7.035156 15.15625 -7.703125 L 15.078125 -10.8125 L 15.984375 -10.65625 C 15.535156 -10.3125 15 -10.039062 14.375 -9.84375 C 13.757812 -9.644531 13.117188 -9.492188 12.453125 -9.390625 C 11.785156 -9.285156 11.117188 -9.164062 10.453125 -9.03125 C 9.796875 -8.90625 9.203125 -8.734375 8.671875 -8.515625 C 8.148438 -8.304688 7.734375 -8.019531 7.421875 -7.65625 C 7.109375 -7.289062 6.953125 -6.789062 6.953125 -6.15625 C 6.953125 -5.363281 7.21875 -4.738281 7.75 -4.28125 C 8.289062 -3.820312 8.984375 -3.59375 9.828125 -3.59375 Z M 9.828125 -3.59375 "/></g></g></g><g fill="#00427e" fill-opacity="1"><g transform="translate(546.112866, 324.719408)"><g><path d="M 10.734375 7.140625 C 8.441406 7.140625 6.570312 6.960938 5.125 6.609375 C 3.675781 6.253906 2.617188 5.734375 1.953125 5.046875 C 1.285156 4.367188 0.953125 3.53125 0.953125 2.53125 C 0.953125 1.3125 1.421875 0.320312 2.359375 -0.4375 C 3.304688 -1.195312 4.726562 -1.65625 6.625 -1.8125 L 6.625 -2.5625 C 5.175781 -2.5625 4.078125 -2.71875 3.328125 -3.03125 C 2.578125 -3.351562 2.203125 -3.894531 2.203125 -4.65625 C 2.203125 -5.394531 2.570312 -6.050781 3.3125 -6.625 C 4.050781 -7.207031 5.289062 -7.65625 7.03125 -7.96875 L 7.03125 -8.71875 C 5.425781 -8.851562 4.160156 -9.394531 3.234375 -10.34375 C 2.316406 -11.289062 1.859375 -12.515625 1.859375 -14.015625 C 1.859375 -15.328125 2.222656 -16.503906 2.953125 -17.546875 C 3.691406 -18.585938 4.785156 -19.414062 6.234375 -20.03125 C 7.679688 -20.644531 9.457031 -20.953125 11.5625 -20.953125 L 22.0625 -20.953125 L 22.0625 -16.578125 L 15.46875 -17.484375 L 15.46875 -16.65625 C 17.175781 -16.394531 18.410156 -15.953125 19.171875 -15.328125 C 19.941406 -14.710938 20.328125 -13.878906 20.328125 -12.828125 C 20.328125 -11.742188 19.976562 -10.796875 19.28125 -9.984375 C 18.582031 -9.171875 17.582031 -8.53125 16.28125 -8.0625 C 14.976562 -7.601562 13.40625 -7.375 11.5625 -7.375 C 11.21875 -7.375 10.84375 -7.394531 10.4375 -7.4375 C 10.03125 -7.476562 9.394531 -7.550781 8.53125 -7.65625 C 8.03125 -7.257812 7.632812 -6.929688 7.34375 -6.671875 C 7.050781 -6.410156 6.90625 -6.160156 6.90625 -5.921875 C 6.90625 -5.734375 7.003906 -5.578125 7.203125 -5.453125 C 7.398438 -5.335938 7.65625 -5.253906 7.96875 -5.203125 C 8.289062 -5.148438 8.617188 -5.125 8.953125 -5.125 L 14.921875 -5.125 C 15.441406 -5.125 16.125 -5.082031 16.96875 -5 C 17.8125 -4.925781 18.65625 -4.722656 19.5 -4.390625 C 20.34375 -4.066406 21.050781 -3.53125 21.625 -2.78125 C 22.207031 -2.03125 22.5 -0.957031 22.5 0.4375 C 22.5 1.957031 22.070312 3.210938 21.21875 4.203125 C 20.363281 5.191406 19.066406 5.925781 17.328125 6.40625 C 15.585938 6.894531 13.390625 7.140625 10.734375 7.140625 Z M 11.328125 2.5625 C 12.929688 2.5625 14.1875 2.472656 15.09375 2.296875 C 16 2.128906 16.632812 1.863281 17 1.5 C 17.375 1.132812 17.5625 0.675781 17.5625 0.125 C 17.5625 -0.40625 17.441406 -0.816406 17.203125 -1.109375 C 16.972656 -1.398438 16.6875 -1.601562 16.34375 -1.71875 C 16 -1.832031 15.640625 -1.898438 15.265625 -1.921875 C 14.898438 -1.953125 14.597656 -1.96875 14.359375 -1.96875 L 9.359375 -1.96875 C 8.253906 -1.863281 7.460938 -1.570312 6.984375 -1.09375 C 6.515625 -0.625 6.28125 -0.078125 6.28125 0.546875 C 6.28125 1.078125 6.460938 1.484375 6.828125 1.765625 C 7.191406 2.054688 7.75 2.257812 8.5 2.375 C 9.25 2.5 10.191406 2.5625 11.328125 2.5625 Z M 11.28125 -10.375 C 12.519531 -10.375 13.453125 -10.679688 14.078125 -11.296875 C 14.710938 -11.921875 15.03125 -12.722656 15.03125 -13.703125 C 15.03125 -14.753906 14.707031 -15.617188 14.0625 -16.296875 C 13.425781 -16.984375 12.5 -17.328125 11.28125 -17.328125 C 10.070312 -17.328125 9.128906 -16.988281 8.453125 -16.3125 C 7.785156 -15.644531 7.453125 -14.785156 7.453125 -13.734375 C 7.453125 -13.078125 7.601562 -12.488281 7.90625 -11.96875 C 8.21875 -11.457031 8.65625 -11.0625 9.21875 -10.78125 C 9.78125 -10.507812 10.46875 -10.375 11.28125 -10.375 Z M 11.28125 -10.375 "/></g></g></g><g fill="#00427e" fill-opacity="1"><g transform="translate(568.210783, 324.719408)"><g><path d="M 12.15625 0.546875 C 10.445312 0.546875 8.925781 0.3125 7.59375 -0.15625 C 6.269531 -0.632812 5.144531 -1.328125 4.21875 -2.234375 C 3.300781 -3.140625 2.601562 -4.242188 2.125 -5.546875 C 1.65625 -6.847656 1.421875 -8.328125 1.421875 -9.984375 C 1.421875 -11.617188 1.648438 -13.125 2.109375 -14.5 C 2.566406 -15.882812 3.238281 -17.082031 4.125 -18.09375 C 5.007812 -19.101562 6.09375 -19.882812 7.375 -20.4375 C 8.664062 -21 10.128906 -21.28125 11.765625 -21.28125 C 13.367188 -21.28125 14.78125 -21.015625 16 -20.484375 C 17.226562 -19.953125 18.25 -19.171875 19.0625 -18.140625 C 19.875 -17.117188 20.472656 -15.875 20.859375 -14.40625 C 21.242188 -12.9375 21.367188 -11.238281 21.234375 -9.3125 L 5.09375 -9.203125 L 5.09375 -12.3125 L 17.875 -12.4375 L 15.984375 -10.8125 C 16.171875 -12.207031 16.085938 -13.351562 15.734375 -14.25 C 15.378906 -15.144531 14.851562 -15.800781 14.15625 -16.21875 C 13.457031 -16.644531 12.671875 -16.859375 11.796875 -16.859375 C 10.796875 -16.859375 9.921875 -16.59375 9.171875 -16.0625 C 8.421875 -15.539062 7.84375 -14.769531 7.4375 -13.75 C 7.03125 -12.738281 6.828125 -11.523438 6.828125 -10.109375 C 6.828125 -7.867188 7.3125 -6.226562 8.28125 -5.1875 C 9.257812 -4.144531 10.550781 -3.625 12.15625 -3.625 C 12.894531 -3.625 13.519531 -3.722656 14.03125 -3.921875 C 14.539062 -4.117188 14.957031 -4.375 15.28125 -4.6875 C 15.613281 -5.007812 15.875 -5.367188 16.0625 -5.765625 C 16.25 -6.160156 16.394531 -6.566406 16.5 -6.984375 L 21.46875 -5.953125 C 21.28125 -4.984375 20.957031 -4.101562 20.5 -3.3125 C 20.039062 -2.519531 19.4375 -1.832031 18.6875 -1.25 C 17.9375 -0.675781 17.019531 -0.234375 15.9375 0.078125 C 14.863281 0.390625 13.601562 0.546875 12.15625 0.546875 Z M 12.15625 0.546875 "/></g></g></g><g fill="#00427e" fill-opacity="1"><g transform="translate(590.038067, 324.719408)"><g/></g></g></svg>